<?xml version="1.0" encoding="UTF-8" standalone="no"?>
<svg
   xmlns:dc="http://purl.org/dc/elements/1.1/"
   xmlns:cc="http://creativecommons.org/ns#"
   xmlns:rdf="http://www.w3.org/1999/02/22-rdf-syntax-ns#"
   xmlns:svg="http://www.w3.org/2000/svg"
   xmlns="http://www.w3.org/2000/svg"
   xmlns:sodipodi="http://sodipodi.sourceforge.net/DTD/sodipodi-0.dtd"
   xmlns:inkscape="http://www.inkscape.org/namespaces/inkscape"
   width="560"
   height="180"
   viewBox="0 0 148.16666 47.625001"
   version="1.1"
   id="svg8"
   inkscape:version="1.0.2-2 (e86c870879, 2021-01-15)"
   sodipodi:docname="bass.svg">
  <defs
     id="defs2">
    <rect
       x="25.891369"
       y="60.476192"
       width="178.59375"
       height="67.090775"
       id="rect1004" />
    <rect
       x="18.976137"
       y="43.56493"
       width="173.7252"
       height="87.931664"
       id="rect838" />
    <rect
       x="18.976137"
       y="43.56493"
       width="173.7252"
       height="87.931664"
       id="rect838-0" />
    <rect
       x="18.976137"
       y="43.56493"
       width="173.7252"
       height="87.931664"
       id="rect854" />
    <rect
       x="18.976137"
       y="43.56493"
       width="173.7252"
       height="87.931664"
       id="rect856" />
    <rect
       x="18.976137"
       y="43.56493"
       width="173.7252"
       height="87.931664"
       id="rect858" />
    <rect
       x="18.976137"
       y="43.56493"
       width="173.7252"
       height="87.931664"
       id="rect838-2" />
    <rect
       x="18.976137"
       y="43.56493"
       width="173.7252"
       height="87.931664"
       id="rect891" />
    <rect
       x="25.891369"
       y="60.476192"
       width="178.59375"
       height="67.090775"
       id="rect1014" />
    <rect
       x="25.891369"
       y="60.476192"
       width="178.59375"
       height="67.090775"
       id="rect1095" />
  </defs>
  <sodipodi:namedview
     id="base"
     pagecolor="#ffffff"
     bordercolor="#666666"
     borderopacity="1.0"
     inkscape:pageopacity="0.0"
     inkscape:pageshadow="2"
     inkscape:zoom="31.678384"
     inkscape:cx="93.611687"
     inkscape:cy="77.914143"
     inkscape:document-units="mm"
     inkscape:current-layer="layer2"
     inkscape:document-rotation="0"
     showgrid="false"
     inkscape:window-width="3840"
     inkscape:window-height="2066"
     inkscape:window-x="-11"
     inkscape:window-y="-11"
     inkscape:window-maximized="1"
     units="px"
     inkscape:snap-global="false" />
  <metadata
     id="metadata5">
    <rdf:RDF>
      <cc:Work
         rdf:about="">
        <dc:format>image/svg+xml</dc:format>
        <dc:type
           rdf:resource="http://purl.org/dc/dcmitype/StillImage" />
        <dc:title />
      </cc:Work>
    </rdf:RDF>
  </metadata>
  <g
     inkscape:label="Background"
     inkscape:groupmode="layer"
     id="layer1"
     style="display:inline">
    <path
       style="color:#000000;font-style:normal;font-variant:normal;font-weight:normal;font-stretch:normal;font-size:medium;line-height:normal;font-family:sans-serif;font-variant-ligatures:normal;font-variant-position:normal;font-variant-caps:normal;font-variant-numeric:normal;font-variant-alternates:normal;font-variant-east-asian:normal;font-feature-settings:normal;font-variation-settings:normal;text-indent:0;text-align:start;text-decoration:none;text-decoration-line:none;text-decoration-style:solid;text-decoration-color:#000000;letter-spacing:normal;word-spacing:normal;text-transform:none;writing-mode:lr-tb;direction:ltr;text-orientation:mixed;dominant-baseline:auto;baseline-shift:baseline;text-anchor:start;white-space:normal;shape-padding:0;shape-margin:0;inline-size:0;clip-rule:nonzero;display:inline;overflow:visible;visibility:visible;opacity:1;isolation:auto;mix-blend-mode:normal;color-interpolation:sRGB;color-interpolation-filters:linearRGB;solid-color:#000000;solid-opacity:1;vector-effect:none;fill:#ffe380;fill-opacity:1;fill-rule:nonzero;stroke:none;stroke-width:0.264583;stroke-linecap:butt;stroke-linejoin:miter;stroke-miterlimit:4;stroke-dasharray:none;stroke-dashoffset:0;stroke-opacity:1;color-rendering:auto;image-rendering:auto;shape-rendering:auto;text-rendering:auto;enable-background:accumulate;stop-color:#000000;stop-opacity:1"
       d="M -24.219459,-14.432556 H 155.11834 V 59.200199 H -24.219459 Z"
       id="rect1119" />
    <path
       style="color:#000000;font-style:normal;font-variant:normal;font-weight:normal;font-stretch:normal;font-size:medium;line-height:normal;font-family:sans-serif;font-variant-ligatures:normal;font-variant-position:normal;font-variant-caps:normal;font-variant-numeric:normal;font-variant-alternates:normal;font-variant-east-asian:normal;font-feature-settings:normal;font-variation-settings:normal;text-indent:0;text-align:start;text-decoration:none;text-decoration-line:none;text-decoration-style:solid;text-decoration-color:#000000;letter-spacing:normal;word-spacing:normal;text-transform:none;writing-mode:lr-tb;direction:ltr;text-orientation:mixed;dominant-baseline:auto;baseline-shift:baseline;text-anchor:start;white-space:normal;shape-padding:0;shape-margin:0;inline-size:0;clip-rule:nonzero;display:inline;overflow:visible;visibility:visible;opacity:1;isolation:auto;mix-blend-mode:normal;color-interpolation:sRGB;color-interpolation-filters:linearRGB;solid-color:#000000;solid-opacity:1;vector-effect:none;fill:#ffeaa1;fill-opacity:1;fill-rule:nonzero;stroke:none;stroke-width:0.284258;stroke-linecap:butt;stroke-linejoin:miter;stroke-miterlimit:4;stroke-dasharray:none;stroke-dashoffset:0;stroke-opacity:1;color-rendering:auto;image-rendering:auto;shape-rendering:auto;text-rendering:auto;enable-background:accumulate;stop-color:#000000;stop-opacity:1"
       d="m 249.89592,5.3232582 c 0,15.0753508 -71.00458,27.3140908 -158.834279,27.3775608 C 3.2318959,32.764319 -68.370627,20.628619 -69.110257,5.5538082 -69.849886,-9.5210008 0.55171943,-21.861937 88.375238,-22.052361 176.19871,-22.242785 248.39409,-10.211035 249.8733,4.8621782"
       id="path1121" />
  </g>
  <g
     inkscape:groupmode="layer"
     id="layer2"
     inkscape:label="maske"
     style="display:inline;mix-blend-mode:normal">
    <path
       id="rect1109"
       style="fill:#ffffff;fill-opacity:1;stroke-width:0.264583"
       d="M -9.9203516,-0.66795392 V 50.513929 H 149.57269 V -0.66795392 Z M 12.825023,7.0447582 h 10.769885 l -3.149679,9.6516008 h 10.515637 c 7.9248,0 10.921815,2.79446 10.921815,7.87446 0,3.5052 -1.42221,7.31519 -3.40341,10.36319 -3.2004,4.9276 -8.280794,7.5184 -15.748394,7.5184 h -8.737449 c -6.5023985,0 -9.7534057,-2.69283 -9.7534057,-7.21403 0,-1.27 0.253709,-2.64163 0.7617087,-4.16563 z m 35.357014,9.6516008 h 18.897554 c 7.0104,0 10.261391,1.98161 10.261391,6.55361 0,1.4732 -0.304916,3.20039 -0.965316,5.18159 l -4.521171,14.02085 H 47.114919 c -4.4704,0 -6.197555,-1.72717 -6.197555,-4.52117 0,-2.1336 0.812628,-4.16571 1.727028,-6.14691 1.7272,-3.4036 4.572124,-5.2834 9.652122,-5.2834 h 14.122654 c 0.1016,-0.508 0.152445,-1.01589 0.152445,-1.37149 0,-1.27 -0.660453,-1.67638 -2.489253,-1.67638 H 45.997158 Z m 44.195738,0 h 20.472095 l -2.28566,7.01043 H 93.343089 c -1.371591,0 -2.489575,0.30516 -3.048372,1.21956 -0.2032,0.3048 -0.355539,0.81249 -0.355539,1.26969 0,0.508 0.356009,0.66042 1.372003,0.66042 h 10.566229 c 4.8768,0 6.85798,1.47313 6.85798,4.36873 0,2.3368 -1.01621,5.08007 -2.43861,7.16287 -1.9812,2.794 -5.02885,4.06435 -9.804029,4.06435 h -21.59038 l 2.286164,-7.06158 h 17.170508 c 1.219194,0 2.285818,-0.35525 2.895415,-1.11725 0.304797,-0.4064 0.558617,-0.91465 0.558617,-1.42265 0,-0.508 -0.40614,-0.60978 -1.422124,-0.60978 h -9.347203 c -5.08,0 -7.518406,-1.72695 -7.518406,-4.92735 0,-2.0828 0.863362,-4.31811 2.082562,-6.14691 2.0828,-3.0988 5.486686,-4.47053 10.769871,-4.47053 z m 32.918355,0 h 20.47214 l -2.28565,7.01043 h -17.22117 c -1.3716,0 -2.4896,0.30516 -3.04839,1.21956 -0.2032,0.3048 -0.35554,0.81249 -0.35554,1.26969 0,0.508 0.35549,0.66042 1.37149,0.66042 h 10.5668 c 4.8768,0 6.85798,1.47313 6.85798,4.36873 0,2.3368 -1.01621,5.08007 -2.43861,7.16287 -1.9812,2.794 -5.02937,4.06435 -9.80457,4.06435 h -21.58989 l 2.28616,-7.06158 h 17.17053 c 1.2192,0 2.28583,-0.35525 2.89543,-1.11725 0.3048,-0.4064 0.55862,-0.91465 0.55862,-1.42265 0,-0.508 -0.40614,-0.60978 -1.42214,-0.60978 h -9.34723 c -5.08,0 -7.5184,-1.72695 -7.5184,-4.92735 0,-2.0828 0.86336,-4.31811 2.08256,-6.14691 2.0828,-3.0988 5.48668,-4.47053 10.76988,-4.47053 z m -107.558251,7.618414 -1.966266,6.859776 c -0.2032,0.6604 -0.355534,1.21918 -0.355534,1.67638 0,0.9652 0.609407,1.52394 2.235007,1.52394 h 5.181595 c 3.5052,0 5.536977,-1.42237 6.756177,-3.35277 0.6604,-1.1684 1.320848,-2.64128 1.320848,-4.11448 0,-1.4224 -0.964988,-2.13371 -3.911388,-2.13371 -2.972906,-0.152058 -6.239087,-0.233708 -9.260439,-0.459136 z m 37.403424,7.418396 c -1.4732,0 -2.540079,0.55889 -3.149679,1.47329 -0.3048,0.4064 -0.558623,1.21939 -0.558623,1.77819 0,0.508 0.355494,0.76171 1.371494,0.76171 h 10.718726 l 1.320848,-4.01319 z"
       sodipodi:nodetypes="ccccccccsscssscccssccsscscssccsccscsssscsccscsssscssccscsssscsccscsssscsccssscsccscssccs" />
  </g>
  <g
     inkscape:groupmode="layer"
     id="layer3"
     inkscape:label="bass"
     style="display:inline;opacity:1">
    <path
       id="text1002"
       style="font-style:normal;font-weight:normal;font-size:50.8px;line-height:1.25;font-family:sans-serif;white-space:pre;shape-inside:url(#rect1004);display:inline;mix-blend-mode:normal;fill:#000000;fill-opacity:1;stroke:none;stroke-width:1"
       d="M 12.825023,7.0447582 5.001731,31.072749 c -0.5079997,1.524 -0.7617087,2.89563 -0.7617087,4.16563 0,4.5212 3.2510072,7.21403 9.7534057,7.21403 h 8.737449 c 7.4676,0 12.547994,-2.5908 15.748394,-7.5184 1.9812,-3.048 3.40341,-6.85799 3.40341,-10.36319 0,-5.08 -2.997015,-7.87446 -10.921815,-7.87446 H 20.445229 l 3.149679,-9.6516008 z m 0.383955,0.5296804 h 9.65626 c -1.049026,3.2175904 -2.102125,6.4337104 -3.148645,9.6521204 h 10.338385 c 3.031667,2e-4 6.336805,0.06 8.921937,1.85415 2.01421,1.40193 2.544533,4.04764 2.345076,6.35465 -0.217908,3.11023 -1.428072,6.22317 -3.070098,8.8651 -2.062294,3.47745 -5.574119,6.00077 -9.500711,6.92929 -2.948524,0.79199 -6.056378,0.70246 -9.149312,0.69246 -2.838527,-0.0741 -5.699715,0.18489 -8.520409,-0.21756 -2.4063981,-0.34277 -4.9977966,-1.54814 -5.885944,-3.97598 -0.7926387,-2.13683 -0.355436,-4.48645 0.3100597,-6.49211 2.5677055,-7.88737 5.1356943,-15.77475 7.7034013,-23.6621204 z m 34.973059,9.1219204 -2.184879,6.7567 H 64.08236 c 1.8288,0 2.489253,0.40638 2.489253,1.67638 0,0.3556 -0.05085,0.86349 -0.152445,1.37149 H 52.296514 c -5.079998,0 -7.924922,1.8798 -9.652122,5.2834 -0.9144,1.9812 -1.727028,4.01331 -1.727028,6.14691 0,2.794 1.727155,4.52117 6.197555,4.52117 h 24.739576 l 4.521171,-14.02085 c 0.6604,-1.9812 0.965314,-3.70839 0.965316,-5.18159 0,-4.572 -3.250991,-6.55361 -10.261391,-6.55361 z m 44.195738,0 c -5.283185,0 -8.687071,1.37173 -10.769871,4.47053 -1.2192,1.8288 -2.082562,4.06411 -2.082562,6.14691 0,3.2004 2.438406,4.92735 7.518406,4.92735 h 9.347203 c 1.015984,0 1.422124,0.10178 1.422124,0.60978 0,0.508 -0.25382,1.01625 -0.558617,1.42265 -0.609597,0.762 -1.676221,1.11725 -2.895415,1.11725 H 77.188535 l -2.286164,7.06158 h 21.59038 c 4.775179,0 7.822829,-1.27035 9.804029,-4.06435 1.4224,-2.0828 2.43861,-4.82607 2.43861,-7.16287 0,-2.8956 -1.98118,-4.36873 -6.85798,-4.36873 H 91.311181 c -1.015994,0 -1.372003,-0.15242 -1.372003,-0.66042 0,-0.4572 0.152339,-0.96489 0.355539,-1.26969 0.558797,-0.9144 1.676781,-1.21956 3.048372,-1.21956 h 17.221121 l 2.28566,-7.01043 z m 32.918355,0 c -5.2832,0 -8.68708,1.37173 -10.76988,4.47053 -1.2192,1.8288 -2.08256,4.06411 -2.08256,6.14691 0,3.2004 2.4384,4.92735 7.5184,4.92735 h 9.34723 c 1.016,0 1.42214,0.10178 1.42214,0.60978 0,0.508 -0.25382,1.01625 -0.55862,1.42265 -0.6096,0.762 -1.67623,1.11725 -2.89543,1.11725 h -17.17053 l -2.28616,7.06158 h 21.58989 c 4.7752,0 7.82337,-1.27035 9.80457,-4.06435 1.4224,-2.0828 2.43861,-4.82607 2.43861,-7.16287 0,-2.8956 -1.98118,-4.36873 -6.85798,-4.36873 h -10.5668 c -1.016,0 -1.37149,-0.15242 -1.37149,-0.66042 0,-0.4572 0.15234,-0.96489 0.35554,-1.26969 0.55879,-0.9144 1.67679,-1.21956 3.04839,-1.21956 h 17.22117 l 2.28565,-7.01043 z m -60.34509,0.5209 c 1.47598,0.004 2.951218,0.0266 4.425569,0.0935 2.35268,0.21447 5.07226,0.64873 6.560841,2.69544 1.33187,2.02863 0.89508,4.62537 0.3576,6.84351 -1.54514,5.04286 -3.226861,10.04525 -4.82451,15.07246 H 50.428928 c -2.441575,-0.10556 -5.078444,0.37498 -7.331334,-0.8139 -1.607198,-0.83872 -1.84758,-2.8647 -1.546677,-4.47518 0.39933,-2.10499 1.18669,-4.17106 2.379699,-5.95571 1.581934,-2.38982 4.476176,-3.50728 7.252788,-3.6096 5.224946,-0.0885 10.453306,-0.0132 15.679663,-0.0382 0.138991,-0.78917 0.313372,-1.59633 0.201538,-2.40037 -0.09553,-1.13006 -1.272569,-1.67985 -2.287198,-1.68155 -6.016644,-0.0549 -12.035226,-0.008 -18.052645,-0.0238 0.613931,-1.89909 1.227815,-3.79824 1.841749,-5.69733 h 9.003585 c 2.459352,0.0273 4.920975,-0.0162 7.380944,-0.009 z m 36.82612,0.008 c 3.44731,0.002 6.89477,0.007 10.342,0.002 -0.64648,1.98372 -1.29293,3.96785 -1.93941,5.95157 h -8.93589 c -2.943038,0.0374 -5.892763,-0.0742 -8.831975,0.0543 -1.395094,0.0795 -2.797589,1.03864 -2.962599,2.50424 -0.241472,0.77109 0.296866,1.60471 1.124998,1.60921 2.394158,0.0941 4.795833,0.0112 7.192801,0.0393 2.675575,0.0986 5.440965,-0.30064 8.037215,0.51832 1.35405,0.36243 2.42129,1.59796 2.38849,3.03133 0.0546,2.68832 -1.02354,5.32345 -2.57969,7.47655 -1.83196,2.47771 -5.02267,3.38794 -7.975725,3.48144 -7.334438,0.0686 -14.671007,0.01 -22.006368,0.0295 0.64779,-2.00065 1.295254,-4.00156 1.943033,-6.00222 h 16.285296 c 1.639291,0.11202 3.598599,-0.40868 4.261726,-2.08204 0.399007,-0.72491 0.297907,-1.91978 -0.691427,-2.04691 -1.913858,-0.1864 -3.851896,-0.0274 -5.774807,-0.0801 -2.743103,-0.0929 -5.54729,0.2691 -8.2367,-0.41755 -1.614159,-0.35762 -3.185472,-1.5774 -3.321243,-3.32486 -0.22007,-2.65001 0.937416,-5.26303 2.559018,-7.30188 2.112129,-2.57475 5.602396,-3.33629 8.779818,-3.42408 3.447109,-0.0182 6.894141,-0.0195 10.341439,-0.0176 z m 32.91892,0 c 3.44698,0.002 6.89406,0.007 10.34097,0.002 -0.64648,1.98372 -1.29294,3.96733 -1.93942,5.95106 -5.79743,0.0106 -11.59579,-0.0213 -17.39274,0.0155 -1.43229,0.0224 -3.0307,0.81418 -3.2954,2.34766 -0.28375,0.75777 0.0855,1.74932 0.98443,1.78698 2.35686,0.1371 4.72862,0.016 7.09104,0.0568 2.6795,0.0959 5.43243,-0.28199 8.04809,0.45475 1.34898,0.32794 2.52992,1.45496 2.56832,2.9006 0.12394,2.74498 -0.97583,5.44156 -2.54713,7.64708 -1.83337,2.49012 -5.03253,3.41341 -7.99693,3.50521 -7.33513,0.0687 -14.67247,0.01 -22.00847,0.0295 0.64779,-2.00065 1.29524,-4.00157 1.94303,-6.00222 h 16.38556 c 1.63078,0.10655 3.55731,-0.468 4.18476,-2.13476 0.37741,-0.72104 0.24784,-1.87543 -0.71675,-1.99419 -1.84576,-0.18556 -3.71578,-0.0281 -5.57072,-0.0801 -2.74607,-0.0907 -5.54314,0.25291 -8.24549,-0.36587 -1.62923,-0.33558 -3.29036,-1.46635 -3.49591,-3.23753 -0.28929,-2.69479 0.89739,-5.36526 2.54093,-7.44037 2.11243,-2.57652 5.60271,-3.33665 8.78085,-3.4246 3.44681,-0.0182 6.89399,-0.0195 10.34098,-0.0176 z M 17.575554,24.157708 c -0.621734,1.91021 -1.284003,3.705681 -1.905744,5.615891 -0.334002,1.28248 -1.144617,2.68379 -0.578776,4.01267 0.675954,1.26382 2.325721,1.12028 3.540871,1.11828 2.541227,-0.10394 5.183232,0.3235 7.632607,-0.54777 2.283571,-0.75963 3.936021,-2.76037 4.691187,-4.99401 0.423563,-1.28591 0.894379,-2.95524 -0.10232,-4.09691 -0.948086,-1.071258 -3.643053,-0.960367 -3.81385,-0.97102 -0.42194,-0.01535 -6.887872,-0.08918 -9.463975,-0.137131 z m 0.32769,0.549806 c 2.958285,0.02722 5.846695,0.07048 9.09925,0.09146 2.946369,0.01362 3.907212,0.686253 3.907212,2.108653 0,1.4732 -0.660448,2.94608 -1.320848,4.11448 -1.2192,1.9304 -3.250977,3.35277 -6.756177,3.35277 h -5.181595 c -1.6256,0 -2.235007,-0.55874 -2.235007,-1.52394 0,-0.4572 0.152334,-1.01598 0.355534,-1.67638 z m 37.223589,6.495975 c -0.199043,0.0112 -0.398925,0.0149 -0.597379,0.0331 -1.799516,0.10172 -3.427476,1.53737 -3.596679,3.35794 -0.247595,0.86772 0.487597,1.67764 1.358571,1.65364 3.869402,0.0656 7.743566,0.008 11.614796,0.0274 0.555307,-1.69098 1.11257,-3.38114 1.668116,-5.07204 z m 0.01447,0.52968 h 9.702765 l -1.320847,4.01319 H 52.804498 c -1.016,0 -1.371494,-0.25371 -1.371494,-0.76171 0,-0.5588 0.253822,-1.37179 0.558622,-1.77819 0.6096,-0.9144 1.67648,-1.47329 3.14968,-1.47329 z"
       sodipodi:nodetypes="ccssscssccccccccccccccccccsscscssccsscscsssscsccscsssscsccsscsssscsccscsssscsccsccccccccccccccccccccccccccccccccccccccccccccccccccccccccccccccccccccccccccccccsssccccccccccccsscsc" />
  </g>
</svg>
